# xmcd CD database file
#
# Track frame offsets:
#	150
#	9687
#	22842
#	40600
#	51392
#	64045
#	75017
#	85410
#	98322
#	111897
#	121805
#	134330
#	149277
#	162957
#	171865
#	180432
#
# Disc length: 2549 seconds
#
# Revision: 0
# Processed by: cddbd v1.5.1PL0 Copyright (c) Steve Scherf et al.
# Submitted via: CDex 1.60beta1
#
DISCID=bb09f310
DTITLE=Hanan Harchol - Romance, Vol. 5
DYEAR=1900
DGENRE=New Age
TTITLE0=Yesterday
TTITLE1=What I Did For Love
TTITLE2=Lady In Red
TTITLE3=Cielito Lindo
TTITLE4=In The Still Of The Night
TTITLE5=I Will Wait For You
TTITLE6=Perfidia
TTITLE7=You'd Be So Nice To Come Home To
TTITLE8=Time In A Bottle
TTITLE9=Love Me With All You Heart (Cuando Calienta El Sol)
TTITLE10=Arrivederci Roma
TTITLE11=Autumn Leaves
TTITLE12=Guitarra Romana
TTITLE13=Try To Remember
TTITLE14=Musetta's Waltz
TTITLE15=The Way You Look Tonight
EXTD=
EXTT0=
EXTT1=
EXTT2=
EXTT3=
EXTT4=
EXTT5=
EXTT6=
EXTT7=
EXTT8=
EXTT9=
EXTT10=
EXTT11=
EXTT12=
EXTT13=
EXTT14=
EXTT15=
PLAYORDER=
